<svg width="29" height="28" viewBox="0 0 29 28" fill="none" xmlns="http://www.w3.org/2000/svg">
<path d="M13.2238 27.9362C9.96014 27.6811 6.70913 26.2236 4.30237 23.9401C-0.750564 19.1303 -1.43101 11.4661 2.67686 5.84243C7.25096 -0.400658 16.3992 -1.88248 22.9516 2.57513C24.2243 3.43751 25.6608 4.8586 26.505 6.0975C28.244 8.62389 29 11.0167 29 13.9803C29 17.782 27.5383 21.2072 24.7913 23.8551C22.3972 26.1628 19.0831 27.6933 16.0841 27.8876C15.5297 27.924 14.9375 27.9726 14.7611 27.9969C14.5846 28.0091 13.8916 27.9848 13.2238 27.9362ZM16.7898 26.4301C22.3342 25.4948 26.694 21.2194 27.5005 15.9237C27.7021 14.539 27.5887 12.1098 27.2611 10.8831C26.6436 8.64818 25.6608 6.91129 24.0605 5.28371C22.309 3.52253 20.57 2.49011 18.0877 1.7492C17.0292 1.44555 16.8276 1.42126 14.509 1.42126C12.1905 1.42126 11.9889 1.44555 10.9304 1.7492C8.44804 2.49011 6.70913 3.52253 4.95761 5.28371C3.38251 6.887 2.39964 8.5996 1.7696 10.8223C1.44198 11.9762 1.30337 14.782 1.51759 15.9966C1.99642 18.7173 3.16829 20.8914 5.18443 22.8591C7.12496 24.7539 9.3553 25.9078 12.0645 26.4179C13.2364 26.6487 15.5045 26.6487 16.7898 26.4301Z" fill="#1D9624" fill-opacity="0.85"/>
<path d="M13.9925 19.0089C13.8539 18.851 13.8035 18.2923 13.7783 16.7498L13.7405 14.7092H11.7622C9.44363 14.7092 9.15381 14.6242 9.15381 13.9804C9.15381 13.3367 9.44363 13.2517 11.7748 13.2517H13.7531V11.3447C13.7531 9.09772 13.8413 8.81836 14.5092 8.81836C15.177 8.81836 15.2652 9.09772 15.2652 11.3447V13.2517H17.2561C19.5747 13.2517 19.8645 13.3367 19.8645 13.9804C19.8645 14.6242 19.5747 14.7092 17.2561 14.7092H15.2652V16.6283C15.2652 18.7903 15.177 19.1182 14.5596 19.179C14.3075 19.2033 14.1059 19.1425 13.9925 19.0089Z" fill="#1D9624" fill-opacity="0.85"/>
</svg>
