<svg width="23" height="27" viewBox="0 0 23 27" fill="none" xmlns="http://www.w3.org/2000/svg">
<path d="M9.56242 4.00014V2.96191C9.56242 2.40963 10.0101 1.96191 10.5624 1.96191H12.8061C13.3584 1.96191 13.8061 2.40963 13.8061 2.96191V3.96188M9.56242 4.00014H4.47974C3.93864 4.00014 3.5 4.43878 3.5 4.97988V4.97988C3.5 5.52187 3.94004 5.96089 4.48203 5.95962L18.8888 5.92594C19.4302 5.92467 19.8685 5.48537 19.8685 4.94391V4.94391C19.8685 4.40155 19.4288 3.96188 18.8865 3.96188H13.8061M9.56242 4.00014L13.8061 3.96188M7.48979 10.3025L8.30611 20.0474M11.5204 10.3025V20.0474M15.653 10.3025L14.3265 20.0474M20.182 8.8965L16.7634 22.3046C16.6504 22.7476 16.2515 23.0576 15.7944 23.0576H7.0272C6.55362 23.0576 6.14498 22.7254 6.04827 22.2618L3.25121 8.85365C3.12165 8.2326 3.59572 7.64944 4.23014 7.64944H19.213C19.8655 7.64944 20.3432 8.26423 20.182 8.8965Z" stroke="#353535" stroke-width="1.5" stroke-linecap="round" stroke-linejoin="round"/>
</svg>
