<svg width="17" height="20" viewBox="0 0 17 20" fill="none" xmlns="http://www.w3.org/2000/svg">
<path d="M6.5 3V3C6.5 2.44772 6.94772 2 7.5 2H9.03156C9.56641 2 10 2.43359 10 2.96844V2.96844M6.5 3H1.89751C1.67797 3 1.5 3.17797 1.5 3.39751V3.39751C1.5 3.61741 1.67854 3.79553 1.89844 3.79502L14.6025 3.76532C14.8222 3.7648 15 3.58657 15 3.36688V3.36688C15 3.14683 14.8216 2.96844 14.6016 2.96844H10M6.5 3L10 2.96844M4.70297 7.17375L5.37624 15.2109M8.02723 7.17375V15.2109M11.4356 7.17375L10.3416 15.2109M15.1152 6.23268L12.385 16.9406C12.2721 17.3836 11.8732 17.6935 11.416 17.6935H4.46391C3.99033 17.6935 3.58169 17.3613 3.48498 16.8978L1.25121 6.18983C1.12165 5.56877 1.59571 4.98561 2.23014 4.98561H14.1462C14.7987 4.98561 15.2764 5.60041 15.1152 6.23268Z" stroke="#353535" stroke-width="0.5"/>
</svg>
