<svg width="25" height="25" viewBox="0 0 25 25" fill="none" xmlns="http://www.w3.org/2000/svg">
<g clip-path="url(#clip0)">
<path d="M22.6502 5.58796L22.0982 3.93333C21.888 3.30315 21.3003 2.87971 20.6362 2.87971H15.997V1.36929C15.997 0.614357 15.3832 0 14.6284 0H10.38C9.62546 0 9.01149 0.614357 9.01149 1.36929V2.87971H4.37243C3.7081 2.87971 3.12045 3.30315 2.91026 3.93333L2.35827 5.58796C2.23258 5.96466 2.29628 6.3818 2.52841 6.70395C2.76053 7.0261 3.13609 7.21855 3.5332 7.21855H4.11017L5.38009 22.9219C5.4745 24.0871 6.46327 25 7.63152 25H17.6346C18.8027 25 19.7916 24.0871 19.8859 22.9218L21.1558 7.21855H21.4752C21.8724 7.21855 22.2479 7.0261 22.48 6.70414C22.7122 6.38199 22.7759 5.96466 22.6502 5.58796V5.58796ZM10.4763 1.46484H14.5321V2.87971H10.4763V1.46484ZM18.4258 22.8037C18.3926 23.214 18.0451 23.5352 17.6346 23.5352H7.63152C7.22106 23.5352 6.87354 23.214 6.84035 22.8037L5.57978 7.21855H19.6862L18.4258 22.8037ZM3.84734 5.75371L4.29995 4.39682C4.31025 4.36554 4.33944 4.34456 4.37243 4.34456H20.6362C20.6692 4.34456 20.6982 4.36554 20.7087 4.39682L21.1613 5.75371H3.84734Z" fill="black"/>
<path d="M16.0908 22.7518C16.1038 22.7525 16.1166 22.7527 16.1295 22.7527C16.5165 22.7527 16.84 22.4494 16.8602 22.0584L17.548 8.85539C17.569 8.45141 17.2585 8.10675 16.8547 8.08577C16.4498 8.06422 16.1063 8.37512 16.0851 8.77909L15.3975 21.9821C15.3765 22.3861 15.6868 22.7308 16.0908 22.7518V22.7518Z" fill="black"/>
<path d="M8.18225 22.0601C8.20361 22.4506 8.52671 22.7527 8.91295 22.7527C8.9263 22.7527 8.94003 22.7523 8.95358 22.7516C9.35736 22.7296 9.66692 22.3844 9.64499 21.9804L8.92459 8.77737C8.90265 8.37339 8.55742 8.06383 8.15345 8.08595C7.74966 8.10789 7.4401 8.45312 7.46203 8.8571L8.18225 22.0601Z" fill="black"/>
<path d="M12.5117 22.7527C12.9163 22.7527 13.2441 22.4249 13.2441 22.0203V8.81726C13.2441 8.41271 12.9163 8.08484 12.5117 8.08484C12.1072 8.08484 11.7793 8.41271 11.7793 8.81726V22.0203C11.7793 22.4249 12.1072 22.7527 12.5117 22.7527Z" fill="black"/>
</g>
<defs>
<clipPath id="clip0">
<rect width="25" height="25" fill="white"/>
</clipPath>
</defs>
</svg>
