<svg width="20" height="20" viewBox="0 0 20 20" fill="none" xmlns="http://www.w3.org/2000/svg">
<path d="M8.95245 4.2436C9.29113 4.19353 9.64051 4.16667 10.0003 4.16667C14.2545 4.16667 17.0461 7.9207 17.9839 9.40569C18.0974 9.58542 18.1542 9.67528 18.1859 9.81389C18.2098 9.91799 18.2098 10.0822 18.1859 10.1863C18.1541 10.3249 18.097 10.4154 17.9827 10.5963C17.7328 10.9918 17.3518 11.5476 16.8471 12.1504M5.6036 5.59586C3.80187 6.81808 2.57871 8.51615 2.01759 9.4044C1.90357 9.58489 1.84656 9.67514 1.81478 9.81373C1.79091 9.91783 1.7909 10.082 1.81476 10.1861C1.84652 10.3247 1.90328 10.4146 2.01678 10.5943C2.95462 12.0793 5.74618 15.8333 10.0003 15.8333C11.7157 15.8333 13.1932 15.223 14.4073 14.3972M2.50035 2.5L17.5003 17.5M8.23258 8.23223C7.78017 8.68464 7.50035 9.30964 7.50035 10C7.50035 11.3807 8.61963 12.5 10.0003 12.5C10.6907 12.5 11.3157 12.2202 11.7681 11.7678" stroke="#667085" stroke-width="2" stroke-linecap="round" stroke-linejoin="round"/>
</svg>
