<svg width="27" height="29" viewBox="0 0 27 29" fill="none" xmlns="http://www.w3.org/2000/svg">
<path d="M2.8946 0H15.9203C16.688 0 17.4243 0.304966 17.9671 0.84781C18.51 1.39065 18.8149 2.12691 18.8149 2.8946V5.78921H15.9203V2.8946H2.8946V26.0514H15.9203V23.1568H18.8149V26.0514C18.8149 26.8191 18.51 27.5554 17.9671 28.0982C17.4243 28.6411 16.688 28.946 15.9203 28.946H2.8946C2.12691 28.946 1.39065 28.6411 0.84781 28.0982C0.304966 27.5554 0 26.8191 0 26.0514V2.8946C0 2.12691 0.304966 1.39065 0.84781 0.84781C1.39065 0.304966 2.12691 0 2.8946 0Z" fill="url(#paint0_linear)"/>
<path d="M17.4982 19.6687L19.5389 21.7093L26.7754 14.4728L19.5389 7.23633L17.4982 9.27702L21.2322 13.0255H7.23682V15.9201H21.2322L17.4982 19.6687Z" fill="url(#paint1_linear)"/>
<defs>
<linearGradient id="paint0_linear" x1="9.40746" y1="0" x2="9.40746" y2="28.946" gradientUnits="userSpaceOnUse">
<stop stop-color="#1D9624"/>
<stop offset="1" stop-color="#AFE4B2" stop-opacity="0.94"/>
</linearGradient>
<linearGradient id="paint1_linear" x1="17.0061" y1="7.23633" x2="17.0061" y2="21.7093" gradientUnits="userSpaceOnUse">
<stop stop-color="#1D9624"/>
<stop offset="1" stop-color="#AFE4B2" stop-opacity="0.94"/>
</linearGradient>
</defs>
</svg>
