<svg width="19" height="22" viewBox="0 0 19 22" fill="none" xmlns="http://www.w3.org/2000/svg">
<path d="M5.12376 5.46844L1.31188 7.79481C1.13926 7.90016 1.08394 8.12504 1.18799 8.29846V8.29846C1.29311 8.47366 1.52079 8.52974 1.69526 8.4234L12.5508 1.80708C12.7411 1.69111 12.7873 1.435 12.6497 1.25979V1.25979C12.5332 1.11161 12.3244 1.07394 12.1635 1.17211L7.94307 3.74783M5.12376 5.46844L6.72277 4.49257L7.94307 3.74783M5.12376 5.46844L5.04666 5.37904C4.64529 4.91362 4.75478 4.19969 5.27719 3.87595L6.41273 3.17223C6.88493 2.8796 7.50512 3.02792 7.79384 3.50252L7.94307 3.74783M7.2698 10.1733L7.94307 18.2104M10.5941 10.1733V18.2104M14.0025 10.1733L12.9084 18.2104M17.682 9.23221L14.9519 19.9401C14.8389 20.3831 14.44 20.6931 13.9829 20.6931H7.03074C6.55716 20.6931 6.14852 20.3609 6.05181 19.8973L3.81804 9.18936C3.68848 8.56831 4.16255 7.98515 4.79697 7.98515H16.713C17.3655 7.98515 17.8432 8.59994 17.682 9.23221Z" stroke="#353535" stroke-width="0.5"/>
</svg>
