<svg width="31" height="31" viewBox="0 0 31 31" fill="none" xmlns="http://www.w3.org/2000/svg">
<path d="M28.4671 16.5229C28.2142 16.24 28.0747 15.8765 28.0747 15.5C28.0747 15.1235 28.2142 14.76 28.4671 14.4771L30.4866 12.2454C30.7091 12.0016 30.8473 11.6948 30.8813 11.369C30.9153 11.0433 30.8434 10.7153 30.6759 10.4322L27.5205 5.06992C27.3547 4.78711 27.1022 4.56295 26.7991 4.42937C26.496 4.29579 26.1577 4.25962 25.8324 4.32602L22.8663 4.91494C22.4889 4.99154 22.096 4.9298 21.7617 4.74136C21.4275 4.55293 21.175 4.25083 21.052 3.89208L20.0896 1.05596C19.9837 0.748144 19.7821 0.480783 19.5131 0.291673C19.2442 0.102563 18.9215 0.00126896 18.5907 0.00210765H12.2799C11.9359 -0.0155321 11.5954 0.0779332 11.3106 0.268228C11.0257 0.458523 10.812 0.735188 10.7022 1.05596L9.81874 3.89208C9.69568 4.25083 9.4432 4.55293 9.10895 4.74136C8.7747 4.9298 8.38179 4.99154 8.00438 4.91494L4.95942 4.32602C4.65106 4.28322 4.3367 4.33101 4.05595 4.46339C3.77519 4.59577 3.5406 4.80681 3.38172 5.06992L0.226322 10.4322C0.0546058 10.7122 -0.0226036 11.0383 0.00573264 11.364C0.0340689 11.6896 0.1665 11.9982 0.384092 12.2454L2.38777 14.4771C2.64071 14.76 2.7802 15.1235 2.7802 15.5C2.7802 15.8765 2.64071 16.24 2.38777 16.5229L0.384092 18.7546C0.1665 19.0018 0.0340689 19.3104 0.00573264 19.636C-0.0226036 19.9617 0.0546058 20.2878 0.226322 20.5678L3.38172 25.9301C3.54753 26.2129 3.8 26.4371 4.10313 26.5706C4.40626 26.7042 4.74458 26.7404 5.06986 26.674L8.03593 26.0851C8.41335 26.0085 8.80625 26.0702 9.1405 26.2586C9.47475 26.4471 9.72723 26.7492 9.85029 27.1079L10.8127 29.944C10.9225 30.2648 11.1361 30.5415 11.421 30.7318C11.7059 30.9221 12.0463 31.0155 12.3904 30.9979H18.7012C19.0319 30.9987 19.3546 30.8974 19.6236 30.7083C19.8925 30.5192 20.0942 30.2519 20.2 29.944L21.1624 27.1079C21.2855 26.7492 21.5379 26.4471 21.8722 26.2586C22.2064 26.0702 22.5993 26.0085 22.9767 26.0851L25.9428 26.674C26.2681 26.7404 26.6064 26.7042 26.9096 26.5706C27.2127 26.4371 27.4652 26.2129 27.631 25.9301L30.7864 20.5678C30.9539 20.2847 31.0258 19.9567 30.9918 19.631C30.9578 19.3052 30.8196 18.9984 30.597 18.7546L28.4671 16.5229ZM26.1164 18.5996L27.3785 19.9944L25.3591 23.4349L23.4974 23.063C22.3611 22.8348 21.1791 23.0244 20.1757 23.5958C19.1723 24.1672 18.4174 25.0805 18.0543 26.1625L17.4548 27.8983H13.4159L12.8479 26.1316C12.4848 25.0496 11.7299 24.1362 10.7266 23.5648C9.72317 22.9934 8.54115 22.8038 7.40486 23.032L5.54317 23.4039L3.49216 19.9789L4.75432 18.5841C5.53048 17.7317 5.95958 16.6281 5.95958 15.4845C5.95958 14.3409 5.53048 13.2373 4.75432 12.3849L3.49216 10.9901L5.51162 7.58058L7.3733 7.95253C8.50959 8.18069 9.69162 7.99109 10.695 7.41971C11.6984 6.84833 12.4533 5.93495 12.8164 4.85295L13.4159 3.10169H17.4548L18.0543 4.86845C18.4174 5.95044 19.1723 6.86382 20.1757 7.4352C21.1791 8.00658 22.3611 8.19619 23.4974 7.96802L25.3591 7.59607L27.3785 11.0366L26.1164 12.4314C25.3489 13.2819 24.9252 14.379 24.9252 15.5155C24.9252 16.652 25.3489 17.7491 26.1164 18.5996ZM15.4353 9.30084C14.1872 9.30084 12.9671 9.66442 11.9293 10.3456C10.8914 11.0268 10.0826 11.9949 9.60493 13.1277C9.12728 14.2604 9.0023 15.5069 9.24581 16.7094C9.48931 17.9119 10.0904 19.0165 10.9729 19.8835C11.8555 20.7504 12.98 21.3408 14.2042 21.58C15.4283 21.8192 16.6972 21.6965 17.8504 21.2273C19.0035 20.7581 19.9891 19.9635 20.6826 18.9441C21.376 17.9246 21.7461 16.7261 21.7461 15.5C21.7461 13.8559 21.0813 12.2791 19.8978 11.1165C18.7142 9.95397 17.1091 9.30084 15.4353 9.30084ZM15.4353 18.5996C14.8113 18.5996 14.2012 18.4178 13.6823 18.0772C13.1634 17.7366 12.759 17.2525 12.5201 16.6862C12.2813 16.1198 12.2188 15.4966 12.3406 14.8953C12.4623 14.294 12.7629 13.7418 13.2041 13.3083C13.6454 12.8748 14.2077 12.5796 14.8198 12.46C15.4318 12.3404 16.0663 12.4018 16.6429 12.6364C17.2194 12.871 17.7122 13.2682 18.059 13.778C18.4057 14.2877 18.5907 14.887 18.5907 15.5C18.5907 16.3221 18.2583 17.1104 17.6665 17.6917C17.0748 18.273 16.2722 18.5996 15.4353 18.5996Z" fill="url(#paint0_linear)"/>
<defs>
<linearGradient id="paint0_linear" x1="15.5" y1="0" x2="15.5" y2="31" gradientUnits="userSpaceOnUse">
<stop stop-color="#1D9624"/>
<stop offset="1" stop-color="#AFE4B2" stop-opacity="0.94"/>
</linearGradient>
</defs>
</svg>
