<svg width="131" height="41" viewBox="0 0 131 41" fill="none" xmlns="http://www.w3.org/2000/svg">
<path d="M18.5505 40.9065C13.9723 40.533 9.4117 38.3988 6.03545 35.0552C-1.05291 28.0122 -2.00745 16.7896 3.75515 8.55499C10.1718 -0.586678 23.0051 -2.75649 32.197 3.77073C33.9823 5.03349 35.9974 7.11438 37.1818 8.92848C39.6212 12.6278 40.6818 16.1316 40.6818 20.4712C40.6818 26.038 38.6313 31.0535 34.7778 34.9307C31.4192 38.3099 26.7702 40.5508 22.5632 40.8354C21.7854 40.8888 20.9546 40.9599 20.7071 40.9955C20.4596 41.0133 19.4874 40.9777 18.5505 40.9065ZM23.5531 38.7012C31.3308 37.3317 37.4469 31.0712 38.5782 23.3168C38.8611 21.2893 38.702 17.7322 38.2424 15.9359C37.3762 12.6634 35.9974 10.1201 33.7525 7.73687C31.2954 5.15799 28.8561 3.64624 25.3738 2.56133C23.8889 2.1167 23.6061 2.08112 20.3536 2.08112C17.1011 2.08112 16.8182 2.1167 15.3334 2.56133C11.8511 3.64624 9.4117 5.15799 6.95464 7.73687C4.74505 10.0845 3.36627 12.5923 2.48243 15.847C2.02284 17.5366 1.8284 21.645 2.1289 23.4235C2.80061 27.4075 4.44455 30.591 7.27282 33.4723C9.99503 36.2468 13.1238 37.9364 16.9243 38.6834C18.5682 39.0213 21.75 39.0213 23.5531 38.7012Z" fill="#1D9624"/>
<path d="M19.6294 27.8345C19.435 27.6033 19.3643 26.7852 19.3289 24.5264L19.2759 21.5385H16.5006C13.2481 21.5385 12.8416 21.414 12.8416 20.4714C12.8416 19.5287 13.2481 19.4043 16.5183 19.4043H19.2935V16.612C19.2935 13.3217 19.4173 12.9126 20.3541 12.9126C21.291 12.9126 21.4148 13.3217 21.4148 16.612V19.4043H24.2077C27.4602 19.4043 27.8667 19.5287 27.8667 20.4714C27.8667 21.414 27.4602 21.5385 24.2077 21.5385H21.4148V24.3486C21.4148 27.5144 21.291 27.9946 20.4249 28.0835C20.0713 28.1191 19.7885 28.0301 19.6294 27.8345Z" fill="#1D9624"/>
<path d="M67.9046 24.2905H66.7737L62.4788 17.7163V24.2905H61.3479V15.7593H62.4788L66.7854 22.3628V15.7593H67.9046V24.2905ZM72.3636 24.4077C71.5042 24.4077 70.805 24.1265 70.2659 23.564C69.7268 22.9976 69.4573 22.2417 69.4573 21.2964V21.0972C69.4573 20.4683 69.5765 19.9077 69.8147 19.4155C70.0569 18.9194 70.3929 18.5327 70.8226 18.2554C71.2561 17.9741 71.7249 17.8335 72.2288 17.8335C73.053 17.8335 73.6936 18.105 74.1507 18.6479C74.6077 19.1909 74.8362 19.9683 74.8362 20.98V21.4312H70.5413C70.5569 22.0562 70.7386 22.562 71.0862 22.9487C71.4378 23.3315 71.8831 23.5229 72.4222 23.5229C72.805 23.5229 73.1292 23.4448 73.3948 23.2886C73.6604 23.1323 73.8929 22.9253 74.0921 22.6675L74.7542 23.1831C74.2229 23.9995 73.4261 24.4077 72.3636 24.4077ZM72.2288 18.7241C71.7913 18.7241 71.4241 18.8843 71.1272 19.2046C70.8304 19.521 70.6468 19.9663 70.5765 20.5405H73.7522V20.4585C73.721 19.9077 73.5726 19.4819 73.3069 19.1812C73.0413 18.8765 72.6819 18.7241 72.2288 18.7241ZM81.7093 22.7964L82.928 17.9507H84.012L82.1663 24.2905H81.2874L79.7464 19.4858L78.2464 24.2905H77.3675L75.5276 17.9507H76.6058L77.8538 22.6968L79.3304 17.9507H80.2034L81.7093 22.7964ZM89.3909 20.9507V24.2905H88.2659V15.7593H91.4124C92.346 15.7593 93.0765 15.9976 93.6038 16.4741C94.1351 16.9507 94.4007 17.5815 94.4007 18.3667C94.4007 19.1948 94.1409 19.8335 93.6214 20.2827C93.1058 20.728 92.3655 20.9507 91.4007 20.9507H89.3909ZM89.3909 20.0308H91.4124C92.014 20.0308 92.4749 19.8901 92.7952 19.6089C93.1155 19.3237 93.2757 18.9136 93.2757 18.3784C93.2757 17.8706 93.1155 17.4644 92.7952 17.1597C92.4749 16.855 92.0354 16.6968 91.4768 16.6851H89.3909V20.0308ZM95.2972 21.062C95.2972 20.4409 95.4183 19.8823 95.6604 19.3862C95.9065 18.8901 96.2464 18.5073 96.68 18.2378C97.1175 17.9683 97.6155 17.8335 98.1741 17.8335C99.0374 17.8335 99.7347 18.1323 100.266 18.73C100.801 19.3276 101.069 20.1226 101.069 21.1147V21.1909C101.069 21.8081 100.95 22.3628 100.711 22.855C100.477 23.3433 100.139 23.7241 99.6976 23.9976C99.2601 24.271 98.7561 24.4077 98.1858 24.4077C97.3265 24.4077 96.6292 24.1089 96.094 23.5112C95.5628 22.9136 95.2972 22.1226 95.2972 21.1382V21.062ZM96.387 21.1909C96.387 21.894 96.5491 22.4585 96.8733 22.8843C97.2015 23.3101 97.639 23.5229 98.1858 23.5229C98.7366 23.5229 99.1741 23.3081 99.4983 22.8784C99.8226 22.4448 99.9847 21.8394 99.9847 21.062C99.9847 20.3667 99.8186 19.8042 99.4866 19.3745C99.1585 18.9409 98.721 18.7241 98.1741 18.7241C97.639 18.7241 97.2073 18.937 96.8792 19.3628C96.5511 19.7886 96.387 20.3979 96.387 21.1909ZM106.119 22.6089C106.119 22.3159 106.008 22.0894 105.785 21.9292C105.567 21.7651 105.182 21.6245 104.631 21.5073C104.084 21.3901 103.649 21.2495 103.325 21.0854C103.004 20.9214 102.766 20.7261 102.61 20.4995C102.457 20.2729 102.381 20.0034 102.381 19.6909C102.381 19.1714 102.6 18.7319 103.037 18.3726C103.479 18.0132 104.041 17.8335 104.725 17.8335C105.444 17.8335 106.026 18.019 106.471 18.3901C106.92 18.7612 107.145 19.2358 107.145 19.814H106.055C106.055 19.5171 105.928 19.2612 105.674 19.0464C105.424 18.8315 105.108 18.7241 104.725 18.7241C104.33 18.7241 104.022 18.8101 103.799 18.9819C103.576 19.1538 103.465 19.3784 103.465 19.6558C103.465 19.9175 103.569 20.1147 103.776 20.2476C103.983 20.3804 104.356 20.5073 104.895 20.6284C105.438 20.7495 105.877 20.894 106.213 21.062C106.549 21.23 106.797 21.4331 106.957 21.6714C107.121 21.9058 107.203 22.1929 107.203 22.5327C107.203 23.0991 106.977 23.5542 106.524 23.8979C106.071 24.2378 105.483 24.4077 104.76 24.4077C104.252 24.4077 103.803 24.3179 103.412 24.1382C103.022 23.9585 102.715 23.7085 102.492 23.3882C102.274 23.064 102.164 22.7144 102.164 22.3394H103.248C103.268 22.7026 103.412 22.9917 103.682 23.2065C103.955 23.4175 104.315 23.5229 104.76 23.5229C105.17 23.5229 105.498 23.4409 105.744 23.2769C105.994 23.1089 106.119 22.8862 106.119 22.6089ZM109.793 24.2905H108.709V17.9507H109.793V24.2905ZM108.621 16.269C108.621 16.0933 108.674 15.9448 108.78 15.8237C108.889 15.7026 109.049 15.6421 109.26 15.6421C109.471 15.6421 109.631 15.7026 109.741 15.8237C109.85 15.9448 109.905 16.0933 109.905 16.269C109.905 16.4448 109.85 16.5913 109.741 16.7085C109.631 16.8257 109.471 16.8843 109.26 16.8843C109.049 16.8843 108.889 16.8257 108.78 16.7085C108.674 16.5913 108.621 16.4448 108.621 16.269ZM113.004 16.4155V17.9507H114.188V18.7886H113.004V22.7202C113.004 22.9741 113.057 23.1655 113.162 23.2944C113.268 23.4194 113.448 23.4819 113.701 23.4819C113.826 23.4819 113.998 23.4585 114.217 23.4116V24.2905C113.932 24.3687 113.655 24.4077 113.385 24.4077C112.901 24.4077 112.535 24.2612 112.289 23.9683C112.043 23.6753 111.92 23.2593 111.92 22.7202V18.7886H110.766V17.9507H111.92V16.4155H113.004ZM116.637 24.2905H115.553V17.9507H116.637V24.2905ZM115.465 16.269C115.465 16.0933 115.518 15.9448 115.623 15.8237C115.733 15.7026 115.893 15.6421 116.104 15.6421C116.315 15.6421 116.475 15.7026 116.584 15.8237C116.694 15.9448 116.748 16.0933 116.748 16.269C116.748 16.4448 116.694 16.5913 116.584 16.7085C116.475 16.8257 116.315 16.8843 116.104 16.8843C115.893 16.8843 115.733 16.8257 115.623 16.7085C115.518 16.5913 115.465 16.4448 115.465 16.269ZM118.09 21.062C118.09 20.4409 118.211 19.8823 118.453 19.3862C118.7 18.8901 119.039 18.5073 119.473 18.2378C119.91 17.9683 120.408 17.8335 120.967 17.8335C121.83 17.8335 122.528 18.1323 123.059 18.73C123.594 19.3276 123.862 20.1226 123.862 21.1147V21.1909C123.862 21.8081 123.742 22.3628 123.504 22.855C123.27 23.3433 122.932 23.7241 122.491 23.9976C122.053 24.271 121.549 24.4077 120.979 24.4077C120.119 24.4077 119.422 24.1089 118.887 23.5112C118.356 22.9136 118.09 22.1226 118.09 21.1382V21.062ZM119.18 21.1909C119.18 21.894 119.342 22.4585 119.666 22.8843C119.994 23.3101 120.432 23.5229 120.979 23.5229C121.53 23.5229 121.967 23.3081 122.291 22.8784C122.616 22.4448 122.778 21.8394 122.778 21.062C122.778 20.3667 122.612 19.8042 122.28 19.3745C121.951 18.9409 121.514 18.7241 120.967 18.7241C120.432 18.7241 120 18.937 119.672 19.3628C119.344 19.7886 119.18 20.3979 119.18 21.1909ZM126.246 17.9507L126.282 18.7476C126.766 18.1382 127.399 17.8335 128.18 17.8335C129.52 17.8335 130.196 18.5894 130.207 20.1011V24.2905H129.123V20.0952C129.119 19.6382 129.014 19.3003 128.807 19.0815C128.604 18.8628 128.285 18.7534 127.852 18.7534C127.5 18.7534 127.192 18.8472 126.926 19.0347C126.66 19.2222 126.453 19.4683 126.305 19.7729V24.2905H125.221V17.9507H126.246Z" fill="#1D9624"/>
</svg>
