<svg width="35" height="20" viewBox="0 0 35 20" fill="none" xmlns="http://www.w3.org/2000/svg">
<path d="M8.45672 10.86H3.55672L2.21672 15H0.716719L5.21672 1.86H6.85672L11.3367 15H9.77672L8.45672 10.86ZM8.07672 9.68L7.39672 7.56C6.86339 5.89333 6.41005 4.40667 6.03672 3.1H5.95672C5.51672 4.71333 5.07005 6.2 4.61672 7.56L3.93672 9.68H8.07672ZM17.2619 -1.19209e-06H18.3219V20H17.2619V-1.19209e-06ZM32.9919 15L28.4519 8.18L26.3119 15H24.8319L27.0119 8.12L27.5519 6.8L25.7119 3.9H27.2919L29.0719 6.7L30.9519 9.48L31.4119 7.82L32.6119 3.9H34.1119L31.8519 10.84L34.6719 15H32.9919Z" fill="black"/>
</svg>
