<svg width="25" height="25" viewBox="0 0 25 25" fill="none" xmlns="http://www.w3.org/2000/svg">
<path d="M21.34 3.66232C21.9258 4.24835 22.2549 5.04306 22.2549 5.8717C22.2549 6.70033 21.9258 7.49505 21.34 8.08107L9.79779 19.6233C9.29724 20.1234 8.67023 20.4783 7.98372 20.6498L4.40404 21.5451C4.27308 21.5778 4.1359 21.576 4.00585 21.5399C3.8758 21.5038 3.75732 21.4346 3.66196 21.3391C3.5666 21.2436 3.49762 21.125 3.46172 20.9949C3.42583 20.8648 3.42426 20.7276 3.45716 20.5967L4.35091 17.0186C4.52265 16.3313 4.87804 15.7037 5.37904 15.2029L16.9197 3.66232C17.2099 3.372 17.5544 3.1417 17.9336 2.98458C18.3129 2.82745 18.7193 2.74658 19.1298 2.74658C19.5403 2.74658 19.9468 2.82745 20.326 2.98458C20.7052 3.1417 21.0498 3.372 21.34 3.66232ZM15.815 6.97482L6.48529 16.3092C6.18519 16.6097 5.9724 16.9862 5.86966 17.3983L5.28997 19.7154L7.6056 19.1358C8.01786 19.0326 8.39431 18.8192 8.69466 18.5186L18.0259 9.18732L15.8165 6.97795L15.815 6.97482ZM18.0259 4.76701L16.9197 5.8717L19.129 8.08107L20.2353 6.97638C20.5199 6.68169 20.6774 6.287 20.6738 5.87732C20.6703 5.46764 20.506 5.07574 20.2163 4.78604C19.9266 4.49634 19.5347 4.33202 19.125 4.32846C18.7153 4.3249 18.3206 4.48239 18.0259 4.76701Z" fill="#353535"/>
</svg>
