<svg width="18" height="18" viewBox="0 0 18 18" fill="none" xmlns="http://www.w3.org/2000/svg">
<path d="M16.0929 7.61569C16.1851 8.10994 16.2354 8.62669 16.2354 9.16594C16.2354 13.3839 13.4124 16.3832 9.14862 16.3832C8.17899 16.3835 7.2188 16.1927 6.32292 15.8218C5.42704 15.4509 4.61303 14.907 3.9274 14.2214C3.24176 13.5358 2.69795 12.7218 2.32702 11.8259C1.95609 10.93 1.76533 9.96982 1.76563 9.00019C1.76533 8.03056 1.95609 7.07037 2.32702 6.17449C2.69795 5.27861 3.24176 4.46459 3.9274 3.77896C4.61303 3.09333 5.42704 2.54951 6.32292 2.17858C7.2188 1.80766 8.17899 1.61689 9.14862 1.61719C11.1421 1.61719 12.8079 2.35069 14.0859 3.54169L12.0046 5.62294V5.61769C11.2299 4.87969 10.2466 4.50094 9.14862 4.50094C6.71262 4.50094 4.73263 6.55894 4.73263 8.99569C4.73263 11.4317 6.71262 13.4942 9.14862 13.4942C11.3589 13.4942 12.8634 12.2304 13.1724 10.4949H9.14862V7.61569H16.0936H16.0929Z" fill="white"/>
</svg>
