<svg width="25" height="31" viewBox="0 0 25 31" fill="none" xmlns="http://www.w3.org/2000/svg">
<path d="M8.06981 7.05911L3.39695 9.90435C2.91132 10.2 2.7767 10.8446 3.10339 11.31V11.31C3.39952 11.7318 3.97102 11.8536 4.41341 11.5892L17.7215 3.6343C18.2325 3.32886 18.3588 2.64394 17.9904 2.17632V2.17632C17.6851 1.7888 17.1405 1.68624 16.7152 1.93614L11.5 5M8.06981 7.05911L7.60335 6.38206C7.27735 5.90888 7.41625 5.25894 7.90718 4.96035L9.58198 3.9417C10.023 3.67348 10.5956 3.78495 10.9038 4.199L11.5 5M8.06981 7.05911L11.5 5M8.37554 15.7922L9.16762 25.2477M12.2864 15.7922V25.2477M16.2963 15.7922L15.0092 25.2477M20.6814 14.465L17.3794 27.4155C17.2665 27.8585 16.8675 28.1685 16.4104 28.1685H7.95084C7.47726 28.1685 7.06862 27.8363 6.97191 27.3727L4.27031 14.4222C4.14076 13.8011 4.61482 13.218 5.24924 13.218H19.7124C20.3649 13.218 20.8426 13.8328 20.6814 14.465Z" stroke="#353535" stroke-width="1.5" stroke-linecap="round" stroke-linejoin="round"/>
</svg>
