<svg width="155" height="47" viewBox="0 0 155 47" fill="none" xmlns="http://www.w3.org/2000/svg">
<path d="M28.8707 37.2956C26.8259 37.2956 24.9536 37.0246 23.2538 36.4826C21.5785 35.9407 20.125 35.1277 18.8932 34.0437L20.2605 31.2352C21.5416 32.2699 22.8719 33.0213 24.2515 33.4894C25.6311 33.9575 27.1832 34.1915 28.9077 34.1915C30.8785 34.1915 32.4059 33.822 33.4899 33.0829C34.5739 32.3438 35.1159 31.2968 35.1159 29.9419C35.1159 28.8086 34.6108 27.9587 33.6008 27.3921C32.5907 26.8008 30.9894 26.2588 28.7968 25.7661C26.7028 25.3226 24.9906 24.8176 23.6602 24.251C22.3299 23.6597 21.2829 22.8837 20.5192 21.9229C19.7555 20.9375 19.3736 19.6811 19.3736 18.1536C19.3736 16.6262 19.7801 15.2836 20.5931 14.1257C21.4061 12.9432 22.5516 12.0317 24.0298 11.3911C25.5326 10.726 27.2571 10.3934 29.2033 10.3934C31.051 10.3934 32.7755 10.6767 34.3768 11.2433C36.0028 11.8099 37.3577 12.6106 38.4417 13.6453L37.0744 16.4538C35.8673 15.4437 34.6232 14.7046 33.3421 14.2366C32.061 13.7438 30.6938 13.4975 29.2402 13.4975C27.3433 13.4975 25.8528 13.904 24.7689 14.717C23.6849 15.5053 23.1429 16.5893 23.1429 17.9689C23.1429 19.1514 23.611 20.0506 24.5471 20.6665C25.5079 21.2824 27.0353 21.8367 29.1294 22.3294C31.322 22.8221 33.0957 23.3395 34.4507 23.8815C35.8057 24.4234 36.8897 25.1625 37.7026 26.0987C38.5156 27.0348 38.9221 28.242 38.9221 29.7201C38.9221 31.2475 38.5156 32.5779 37.7026 33.7111C36.8897 34.8444 35.7195 35.7313 34.192 36.3718C32.6893 36.9877 30.9155 37.2956 28.8707 37.2956ZM60.7591 30.4962H47.4558L44.6473 37H40.7672L52.4815 10.689H55.6965L67.4477 37H63.5676L60.7591 30.4962ZM59.4657 27.466L54.1075 14.9387L48.7492 27.466H59.4657ZM70.8552 10.689H74.6615V37H70.8552V10.689ZM97.5563 37L84.5855 24.5836V37H80.7793V10.689H84.5855V22.662L97.002 10.689H101.695L88.4287 23.4011L102.36 37H97.5563ZM121.458 30.4962H108.155L105.347 37H101.466L113.181 10.689H116.396L128.147 37H124.267L121.458 30.4962ZM120.165 27.466L114.807 14.9387L109.448 27.466H120.165ZM131.554 10.689H135.361V37H131.554V10.689Z" fill="black"/>
<path d="M155 22.0695L38.75 24.9586L38.75 19.1803L155 22.0695Z" fill="white"/>
</svg>
